<svg width="25" height="25" viewBox="0 0 25 25" fill="none" xmlns="http://www.w3.org/2000/svg">
<path d="M23.25 0H0.96875C0.43291 0 0 0.43291 0 0.96875V23.25C0 23.7858 0.43291 24.2188 0.96875 24.2188H23.25C23.7858 24.2188 24.2188 23.7858 24.2188 23.25V0.96875C24.2188 0.43291 23.7858 0 23.25 0ZM12.1427 12.294L6.33018 17.1681C6.17275 17.3013 5.93359 17.1893 5.93359 16.9834V15.0853C5.93359 15.0156 5.96689 14.946 6.02139 14.9006L9.34541 12.1094L6.02139 9.31816C5.99356 9.29619 5.97117 9.2681 5.95594 9.23607C5.94072 9.20405 5.93307 9.16895 5.93359 9.1335V7.23535C5.93359 7.02949 6.17275 6.91748 6.33018 7.05068L12.1427 11.9217C12.2607 12.0186 12.2607 12.1972 12.1427 12.294ZM18.2852 16.9834C18.2852 17.1166 18.1822 17.2256 18.0581 17.2256H12.4575C12.3334 17.2256 12.2305 17.1166 12.2305 16.9834V15.5303C12.2305 15.3971 12.3334 15.2881 12.4575 15.2881H18.0581C18.1822 15.2881 18.2852 15.3971 18.2852 15.5303V16.9834Z" fill="#2B7FFF"/>
</svg>
